<svg xmlns="http://www.w3.org/2000/svg" width="179" height="120.623" viewBox="0 0 179 120.623">
  <path id="Path_14" data-name="Path 14" d="M147.416,472.457c-2.054-1.681-2.428-3.922-6.629-39.5-2.521-20.728-4.482-38.376-4.575-39.123-.187-3.361-1.867,2.614-7.376,25.677-6.163,25.49-7,27.545-11.858,27.545-3.268,0-4.575-2.8-7.843-17.741-1.681-7.47-3.268-13.912-3.641-14.286s-1.494,1.867-2.428,5.042c-2.148,6.909-4.482,10.177-7.563,10.177-2.8,0-4.482-1.774-9.057-9.244L82.9,415.22l-3.641,2.895a27.277,27.277,0,0,0-4.2,3.828c-.373.467-7.47.84-15.967.84-15.313,0-15.313,0-16.34-2.241-1.494-3.268-.28-7,2.521-8.03,1.307-.56,7.376-.934,13.446-.934H69.731l6.163-5.6c8.123-7.376,10.551-7.283,15.126.467,1.307,2.334,2.8,4.015,3.175,3.735.467-.28,2.334-5.135,4.2-10.831,3.735-11.018,5.322-12.885,10.084-11.671,2.8.654,3.735,2.8,6.723,16.34,1.307,5.882,2.521,10.831,2.708,11.018.373.373.373.373,8.964-35.481,5.042-20.915,6.163-24.277,8.03-25.584,2.8-1.774,6.723-.934,7.843,1.867.467,1.12,2.614,16.807,4.669,34.734,4.2,36.228,4.762,40.8,5.229,40.43.187-.187,2.054-8.5,4.2-18.488,2.054-9.991,4.482-18.954,5.322-19.795a5.416,5.416,0,0,1,7.843,0c.84.84,3.641,8.5,6.349,16.9l4.855,15.22,2.708-4.762c1.494-2.521,3.548-5.135,4.482-5.7,1.027-.467,7.937-.934,15.78-.934,12.325,0,14.1.187,15.406,1.681a5.281,5.281,0,0,1-.28,7.656c-1.681,1.681-3.081,1.867-13.446,1.867H194.2l-4.855,9.15c-5.135,9.711-6.629,11.391-9.617,11.391-3.548,0-4.388-1.494-8.5-13.632-2.148-6.629-4.2-11.391-4.482-10.644s-2.895,12.325-5.7,25.677c-2.895,13.259-5.7,24.65-6.349,25.3C152.365,474.044,149.657,474.231,147.416,472.457Z" transform="translate(-42.103 -353.038)" />
</svg>
