<?xml version="1.0" standalone="no"?>
<!DOCTYPE svg PUBLIC "-//W3C//DTD SVG 20010904//EN"
 "http://www.w3.org/TR/2001/REC-SVG-20010904/DTD/svg10.dtd">
<svg version="1.0"
    xmlns="http://www.w3.org/2000/svg" width="508.000000pt" height="508.000000pt" viewBox="0 0 508.000000 508.000000" preserveAspectRatio="xMidYMid meet">

    <g transform="translate(0.000000,508.000000) scale(0.100000,-0.100000)" fill="#BFBBAF" stroke="none">
        <path d="M2305 5073 c-16 -2 -85 -10 -153 -18 -324 -40 -657 -149 -918 -301
-295 -171 -604 -461 -841 -789 -133 -184 -182 -271 -191 -339 -7 -56 -9 -60
-38 -68 -52 -13 -65 -73 -44 -203 5 -33 14 -102 20 -153 10 -93 10 -95 -26
-215 -52 -176 -114 -436 -114 -479 0 -69 39 -138 78 -138 5 0 12 19 15 41 7
54 23 71 43 44 20 -26 14 -100 -13 -151 -70 -134 -84 -167 -102 -234 -25 -89
-27 -179 -5 -290 28 -152 81 -259 178 -367 45 -48 56 -68 56 -95 0 -45 45
-308 76 -443 71 -308 154 -517 212 -532 37 -9 123 5 143 23 24 22 24 46 -3
230 -12 82 -19 158 -15 167 3 9 15 17 25 17 42 0 50 -21 72 -175 32 -228 69
-432 87 -476 20 -50 52 -67 145 -75 55 -5 80 -13 101 -30 38 -31 91 -31 137
-1 21 14 58 27 90 30 129 15 217 73 267 175 26 54 27 67 31 218 21 865 -242
1937 -491 2005 -50 14 -294 6 -375 -11 -45 -10 -57 -18 -77 -50 -21 -33 -32
-40 -79 -50 -62 -13 -96 -44 -116 -106 -17 -52 -9 -111 55 -394 30 -135 55
-255 55 -267 0 -23 -38 -42 -58 -29 -5 3 -17 50 -27 103 -22 121 -51 219 -77
255 -23 33 -67 37 -126 13 -71 -30 -82 -49 -82 -137 0 -70 -2 -79 -17 -76 -25
5 -49 60 -69 158 -25 127 -18 176 48 305 74 147 90 195 89 281 -1 103 -53 264
-86 264 -7 0 -17 -9 -20 -20 -12 -37 -25 -21 -19 23 7 52 56 240 85 327 32 97
50 127 134 225 43 50 84 105 92 123 13 30 12 36 -7 67 -23 37 -20 42 35 60 25
8 39 28 86 121 31 62 82 149 114 195 129 186 300 380 363 413 16 8 42 30 57
47 l26 32 44 -21 c24 -12 74 -27 109 -33 88 -17 132 -3 199 62 45 44 56 50 82
44 137 -27 189 -15 257 58 47 50 49 51 81 39 108 -39 186 -23 267 53 55 53 56
54 85 39 91 -47 185 -42 246 13 l39 35 39 -35 c60 -54 155 -61 242 -16 l36 18
54 -53 c76 -76 142 -92 248 -60 l54 16 50 -51 c72 -72 118 -82 252 -56 26 6
37 0 82 -44 67 -65 111 -79 199 -62 35 6 85 22 110 34 42 20 46 21 55 5 5 -10
44 -43 85 -74 131 -98 347 -372 452 -573 60 -116 87 -151 113 -151 9 0 22 -7
29 -15 10 -13 10 -19 -4 -34 -37 -41 -22 -78 80 -196 42 -49 90 -116 105 -150
31 -67 79 -229 103 -347 20 -99 20 -122 0 -85 -21 39 -39 34 -63 -18 -48 -102
-64 -232 -40 -320 6 -22 38 -96 72 -164 53 -107 62 -134 65 -190 6 -104 -39
-278 -74 -288 -7 -2 -13 23 -17 69 -3 40 -9 81 -13 92 -10 25 -100 66 -147 66
-31 0 -40 -5 -57 -32 -27 -44 -47 -111 -71 -238 -10 -57 -23 -108 -28 -113
-15 -15 -61 1 -61 21 0 9 27 139 60 287 33 149 60 289 60 313 0 81 -47 156
-104 167 -58 12 -85 27 -105 60 -24 41 -73 53 -251 62 -176 8 -208 2 -269 -53
-150 -135 -303 -640 -380 -1254 -22 -174 -43 -540 -39 -695 3 -151 5 -163 32
-223 49 -105 134 -163 266 -179 29 -3 72 -17 94 -29 53 -30 97 -30 133 0 21
17 46 25 101 30 86 7 129 27 143 64 20 51 48 198 79 417 33 226 39 245 82 245
10 0 21 -7 25 -17 3 -9 -4 -93 -17 -188 -13 -95 -20 -180 -17 -189 17 -44 150
-63 187 -26 80 80 191 466 251 870 l20 135 43 45 c95 97 150 211 181 374 33
173 16 276 -76 460 -62 125 -73 175 -44 212 15 19 15 19 30 0 8 -11 15 -35 15
-54 0 -29 3 -33 23 -30 29 4 67 79 67 133 0 52 -35 205 -99 430 l-50 180 19
150 c31 236 26 278 -32 293 -31 8 -33 11 -39 63 -7 61 -20 89 -94 205 -254
394 -584 719 -943 930 -362 214 -823 326 -1317 322 -104 0 -203 -3 -220 -5z
m-1517 -2716 c12 -14 19 -42 68 -282 57 -274 120 -612 163 -875 153 -925 180
-1104 170 -1117 -13 -15 -45 -18 -53 -4 -3 5 -26 134 -51 287 -156 954 -237
1410 -326 1828 -16 77 -29 140 -29 142 0 6 32 34 39 34 5 0 13 -6 19 -13z
m3546 0 c17 -13 15 -27 -37 -288 -106 -521 -103 -507 -306 -1736 -22 -134 -43
-247 -46 -253 -9 -14 -42 -13 -51 2 -11 17 -8 43 32 287 160 991 237 1419 330
1856 32 146 40 160 78 132z m-3734 -251 c12 -32 107 -471 159 -736 99 -505
194 -1062 189 -1113 -4 -41 -43 -51 -57 -15 -6 13 -28 138 -51 278 -77 477
-184 1032 -284 1474 -19 81 -22 113 -14 123 17 21 48 15 58 -11z m3939 10 c9
-11 5 -43 -18 -143 -85 -362 -195 -931 -271 -1403 -63 -385 -55 -352 -88 -348
-26 3 -27 4 -25 65 8 204 312 1779 353 1829 16 18 34 18 49 0z"/>
        <path d="M2058 1513 c-22 -25 -44 -99 -71 -233 l-23 -115 -94 -3 c-52 -1 -100
-8 -107 -14 -7 -6 -13 -24 -13 -39 0 -40 28 -49 150 -49 140 0 145 3 161 92
10 58 15 68 20 48 4 -14 8 -52 8 -85 2 -80 27 -256 42 -287 6 -14 23 -31 37
-38 21 -9 30 -8 50 7 32 24 49 75 58 169 4 41 10 77 14 79 4 2 10 -23 13 -56
6 -74 27 -109 65 -109 15 0 37 6 48 14 18 13 62 92 78 139 5 15 19 17 109 17
78 0 108 4 116 14 7 8 17 42 23 75 13 71 28 80 28 19 0 -91 31 -313 48 -347
14 -31 22 -36 51 -36 58 0 72 33 97 220 l7 50 13 -74 c7 -40 21 -82 30 -92 41
-46 103 -4 144 96 l22 55 59 0 c69 0 105 24 93 63 -10 33 -21 37 -121 37 -84
0 -93 -2 -107 -22 -9 -12 -16 -30 -16 -40 0 -10 -4 -18 -9 -18 -4 0 -11 35
-14 78 -10 125 -35 172 -94 172 -27 0 -37 -6 -53 -32 -11 -18 -23 -49 -26 -68
-3 -19 -9 -46 -14 -60 -7 -21 -9 -22 -9 -5 -1 11 -8 89 -15 173 -16 172 -27
202 -76 202 -50 0 -78 -69 -121 -292 l-13 -68 -101 0 c-86 0 -104 -3 -118 -18
-10 -10 -17 -26 -17 -35 0 -9 -4 -18 -9 -21 -5 -3 -12 25 -16 62 -13 130 -44
187 -100 180 -39 -4 -63 -42 -78 -123 -15 -78 -23 -76 -26 5 -2 63 -19 244
-26 277 -11 50 -67 70 -97 36z"/>
    </g>
</svg>
